<?xml version="1.0" encoding="UTF-8"?>
<svg width="135px" height="120px" viewBox="0 0 135 120" version="1.1" xmlns="http://www.w3.org/2000/svg" xmlns:xlink="http://www.w3.org/1999/xlink">
    <!-- Generator: Sketch 58 (84663) - https://sketch.com -->
    <title>Group 3 Copy</title>
    <desc>Created with Sketch.</desc>
    <g id="Page-1" stroke="none" stroke-width="1" fill="none" fill-rule="evenodd">
        <g id="Desktop" transform="translate(-91.000000, -413.000000)" fill="#FFFFFF">
            <g id="Group-3-Copy" transform="translate(91.000000, 413.000000)">
                <path d="M52.7685048,24.0942865 C54.5109164,16.8568952 60.7309003,10.2616778 70.0502412,10.5608082 L70.0502412,10.5608082 L71.3412058,10.6021126 C74.9050322,10.7155908 78.6624598,12.4490691 80.865,14.4108082 C83.3722669,16.6442865 86.0392765,21.7847213 85.8942926,26.1381995 C85.7605949,30.1599387 84.0832958,33.891243 81.1536656,36.6447213 C78.3438424,39.2855908 74.7096945,40.7234169 70.8745659,40.7234169 C70.8715273,40.7234169 70.8684887,40.7229822 70.8650161,40.7229822 L70.8650161,40.7229822 L91.1263023,71.9729822 C92.4576367,68.1438517 93.1473955,63.821243 93.1473955,59.0799387 C93.1473955,59.0799387 93.1498868,57.2014702 93.1510947,55.1041026 L93.1517363,53.0777648 C93.1517363,50.3486343 87.6675241,44.5034169 84.1201929,44.5034169 L84.1201929,44.5034169 L82.9295016,44.5034169 L82.9295016,43.5960256 L134.660981,43.5960256 L134.660981,44.5034169 L133.192476,44.5034169 C128.936286,44.5034169 123.508505,50.0438517 123.500691,55.4234169 L123.500691,55.4234169 L123.497219,84.7642865 C123.497219,98.0495039 112.935531,109.311678 99.6712379,109.311678 C92.319164,109.311678 85.4667203,106.008634 80.8710772,100.249504 C80.8710772,100.249504 79.6178778,98.6038517 79.6178778,96.2742865 C79.6178778,94.66733 80.2429582,93.1564604 81.3772186,92.0199387 C82.5114791,90.8838517 84.0203537,90.2577648 85.6247267,90.2577648 C87.2290997,90.2577648 88.7379743,90.8838517 89.8722347,92.0199387 C91.0069293,93.1564604 91.6324437,94.66733 91.6324437,96.2742865 C91.6324437,97.8816778 91.0069293,99.3925474 89.8722347,100.529069 C88.7379743,101.665591 87.2290997,102.291243 85.6247267,102.291243 C84.9458199,102.291243 84.2855788,102.172982 83.6622347,101.95733 C87.9488103,106.082113 93.6322669,108.404287 99.6712379,108.404287 C102.107315,108.404287 104.490868,108.1282 106.66172,107.321678 C110.873199,105.75646 113.172106,92.651243 113.172106,84.7642865 L113.172106,84.7642865 L113.171672,55.4216778 C113.166029,50.0508082 109.343055,44.5034169 103.562363,44.5034169 C97.781672,44.5034169 94.0572347,50.6021126 94.0576688,53.2321126 C94.0576688,55.2245368 94.0551775,57.5543268 94.0539696,58.5668282 L94.053328,59.0799387 C94.053328,64.19733 93.2650322,68.8434169 91.7457395,72.9281995 L91.7457395,72.9281995 L94.9692444,77.9251561 C97.9192765,82.2108082 103.770723,83.4038517 108.158006,80.5555908 L108.158006,80.5555908 L108.412814,80.9316778 L99.936463,86.4434169 C98.321672,87.4464604 96.4980868,87.9695039 94.6363023,87.9695039 C93.9313505,87.9695039 93.2207556,87.8951561 92.5145016,87.7447213 C89.8739711,87.1825474 87.6531994,85.6142865 86.1829582,83.3468952 L86.1829582,83.3468952 L85.7349839,82.6508082 C85.2501125,83.1555908 84.7522186,83.6481995 84.2265434,84.1138517 C79.0835209,88.671243 71.928955,91.2847213 64.5990193,91.2847213 C33.1561736,91.2847213 36.5567846,63.4577648 40.4674437,56.4190691 L40.4674437,56.4190691 L18.0218489,56.4529822 L14.1736977,65.9516778 C12.4351929,70.7590691 18.7658682,73.3590691 23.3849518,73.3590691 L23.3849518,73.3590691 L25.4945981,73.3590691 L25.4945981,74.2664604 L0,74.2664604 L0,73.3590691 L0.512652733,73.3590691 C5.71384244,73.3590691 10.5169775,72.1429822 12.7481672,66.9277648 C14.0590997,63.8647213 28.8079582,27.1121126 28.8079582,27.1121126 L28.8079582,27.1121126 L25.992492,22.7695039 L34.6546302,17.1351561 L52.5545016,44.4529822 C52.5553698,44.4521126 52.5562379,44.4516778 52.5575402,44.4508082 L52.5575402,44.4508082 L53.0749678,45.2481995 C53.0736656,45.2490691 53.0727974,45.2495039 53.0714952,45.2503735 C53.0714952,45.2503735 69.7038424,71.0290691 70.3501929,71.9734169 C71.4883601,73.6377648 74.0650804,73.7460256 75.0790997,73.7460256 L75.0790997,73.7460256 L75.0790997,74.6686343 L50.1093087,74.6555908 L50.1093087,73.7481995 C54.7487942,73.7481995 57.894164,72.2281995 55.4320418,68.0351561 C54.2105305,66.1255908 47.3272669,55.5455908 47.3272669,55.5455908 L47.3272669,55.5455908 L47.3259646,55.5495039 L44.0086977,50.4355908 L44.0086977,50.4355908 L44.0117363,50.4325474 L29.4499678,28.101243 L18.3795338,55.5455908 L40.8390193,55.5121126 C42.0114791,53.1825474 42.9265273,51.8147213 43.4665273,51.0955908 L43.4665273,51.0955908 L46.9391961,56.4490691 C41.7180386,69.4529822 50.2903215,91.6081995 68.5426688,90.1777648 C73.0028778,89.8277648 79.6886334,86.9234169 83.6262058,83.4342865 C84.1866077,82.9381995 84.7144534,82.4099387 85.2271061,81.86733 L85.2271061,81.86733 L59.3769936,41.9986343 C57.3493891,42.6003735 55.5080064,43.6808082 53.7577814,44.8055908 L53.7577814,44.8055908 L53.2490354,44.0216778 C55.0118489,42.9242865 56.8202412,41.9525474 58.8013987,41.1108082 C58.8013987,41.1108082 55.199373,35.5551561 54.0681511,33.8103735 C52.9360611,32.0651561 51.5695659,29.0734169 52.7685048,24.0942865 Z M71.28,11.6216778 C64.5213183,11.6216778 60.822926,16.0055908 60.3693087,21.0186343 C60.0480868,24.5681995 62.853135,28.3660256 62.853135,28.3660256 L62.853135,28.3660256 L70.3801447,39.9755908 C81.2257235,34.3334169 84.0950161,11.6216778 71.28,11.6216778 Z" id="Combined-Shape"></path>
                <polygon id="Fill-4" opacity="0.496186756" points="34.3134405 102.332982 33.5833119 106.525591 36.6179904 109.504287 32.4117203 110.104721 30.5208521 113.915591 28.6508199 110.094287 24.4480225 109.470808 27.4987621 106.508634 26.792074 102.312547 30.5473312 104.302982"></polygon>
                <polygon id="Fill-6" opacity="0.496186756" points="65.8095048 108.446069 65.3923505 110.841721 67.1260804 112.543895 64.7225595 112.886939 63.6425595 115.064765 62.5738457 112.880852 60.1724952 112.524765 61.9153408 110.832156 61.5116431 108.43433 63.6573183 109.571721"></polygon>
                <polygon id="Fill-8" opacity="0.496186756" points="69.2181463 79.5565908 68.905172 81.3531126 70.2056865 82.6300691 68.4029373 82.8874604 67.5929373 84.5205039 66.7911849 82.8826778 64.990172 82.6157213 66.2971977 81.3461561 65.9946415 79.5474604 67.6037894 80.4009387"></polygon>
                <path d="M41.2850402,92.9029822 C40.6208923,93.8129822 39.3459887,94.0116778 38.4370177,93.3468952 C37.5284807,92.6816778 37.3301045,91.4042865 37.9942524,90.4942865 C38.6579662,89.5842865 39.9333039,89.3855908 40.8418408,90.0503735 C41.7503778,90.7155908 41.948754,91.9925474 41.2850402,92.9029822" id="Fill-10" opacity="0.496186756"></path>
                <path d="M66.6967283,98.3775039 C66.1063746,99.1866343 64.9725482,99.3631561 64.1651527,98.7718517 C63.3573232,98.1805474 63.1806511,97.0457648 63.7714389,96.2366343 C64.3613585,95.4275039 65.4947508,95.2509822 66.3030145,95.8418517 C67.11041,96.4331561 67.2866479,97.5683735 66.6967283,98.3775039" id="Fill-12" opacity="0.496186756"></path>
                <path d="M79.8163408,118.801634 C79.1521929,119.711634 77.8772894,119.91033 76.9683183,119.245547 C76.0597814,118.58033 75.8614051,117.302939 76.5255531,116.392939 C77.1892669,115.482504 78.4646045,115.283808 79.3731415,115.949026 C80.2821125,116.614243 80.4800547,117.8912 79.8163408,118.801634" id="Fill-14" opacity="0.496186756"></path>
                <path d="M93.5772685,116.627547 C93.1527347,117.209287 92.3383939,117.336243 91.7580241,116.911026 C91.1772203,116.486243 91.0504678,115.670156 91.4745675,115.088417 C91.8991013,114.507113 92.7138762,114.380156 93.2946801,114.804939 C93.8750498,115.230156 94.0018023,116.046243 93.5772685,116.627547" id="Fill-16" opacity="0.496186756"></path>
                <path d="M48.2367588,108.955982 C47.8122251,109.537721 46.9978842,109.664678 46.4170804,109.23946 C45.8362765,108.814678 45.7095241,107.998591 46.1336238,107.416852 C46.5581576,106.835547 47.3729325,106.708591 47.9537363,107.133373 C48.5345402,107.558591 48.6612926,108.374678 48.2367588,108.955982" id="Fill-18" opacity="0.496186756"></path>
                <path d="M32.2354389,82.8851561 C31.8465,83.4186343 31.0998762,83.5347213 30.5672556,83.1451561 C30.0355032,82.7555908 29.9191688,82.00733 30.3081077,81.4742865 C30.6970466,80.941243 31.4441045,80.8247213 31.9758569,81.2142865 C32.5084775,81.6042865 32.6243778,82.3521126 32.2354389,82.8851561" id="Fill-20" opacity="0.496186756"></path>
                <path d="M25.0688055,68.0129822 C24.6998344,68.5186343 23.9918441,68.6290691 23.4865707,68.2595039 C22.9817315,67.8899387 22.8714743,67.1803735 23.2404453,66.6747213 C23.6094164,66.1690691 24.3178408,66.0586343 24.8226801,66.4281995 C25.3275193,66.7977648 25.4377765,67.50733 25.0688055,68.0129822" id="Fill-22" opacity="0.496186756"></path>
                <path d="M8.10564309,89.1109822 C7.73623794,89.6166343 7.02868167,89.7270691 6.52340836,89.3575039 C6.01856913,88.9879387 5.9083119,88.2783735 6.27728296,87.7727213 C6.64625402,87.2670691 7.35467846,87.1566343 7.85951768,87.5261995 C8.36435691,87.8961995 8.47461415,88.60533 8.10564309,89.1109822" id="Fill-24" opacity="0.496186756"></path>
                <path d="M19.8636222,94.9788517 C19.4746833,95.5118952 18.7280595,95.6284169 18.1954389,95.2388517 C17.6636865,94.8492865 17.5473521,94.1010256 17.936291,93.5679822 C18.3252299,93.0349387 19.0722878,92.9184169 19.6040402,93.3079822 C20.1366608,93.6975474 20.2525611,94.4453735 19.8636222,94.9788517" id="Fill-26" opacity="0.496186756"></path>
                <path d="M71.1295466,3.71141694 C70.2088553,3.06315607 69.9870386,1.79011259 70.6342572,0.867503893 C71.2814759,-0.0546700205 72.5524727,-0.276843934 73.473164,0.371416936 C74.3942894,1.01967781 74.6161061,2.29272128 73.9688875,3.21532998 C73.3216688,4.13750389 72.050672,4.35967781 71.1295466,3.71141694" id="Fill-28" opacity="0.496186756"></path>
                <polygon id="Fill-30" opacity="0.496186756" points="95.1847669 37.0325908 92.7026768 37.0778082 91.3331431 39.1512865 90.5231431 36.8008517 88.1309084 36.1369387 90.1120659 34.6391126 90.003545 32.1547648 92.0380949 33.5795474 94.3630466 32.7086778 93.6389952 35.0869387"></polygon>
                <polygon id="Fill-32" opacity="0.496186756" points="114.238215 25.0480256 111.444019 25.8415039 110.512042 28.5967213 108.89508 26.1801995 105.990627 26.1436778 107.785997 23.8567213 106.922605 21.0788952 109.649518 22.0823735 112.020482 20.4015039 111.909791 23.3088952"></polygon>
                <polygon id="Fill-34" opacity="0.496186756" points="105.817688 10.7734604 102.912801 9.45737346 100.183717 11.108243 100.535759 7.93432998 98.1248585 5.84476476 101.247222 5.19954737 102.486531 2.25737346 104.06399 5.03172128 107.240614 5.30302563 105.093637 7.6638952"></polygon>
                <path d="M82.6849389,8.41398215 C82.0707106,7.98180824 81.9226881,7.13311259 82.3541672,6.51832998 C82.7856463,5.90311259 83.6334116,5.7552865 84.2476399,6.18702563 C84.8614341,6.61963433 85.0090225,7.46832998 84.5775434,8.08311259 C84.1460643,8.6978952 83.2987331,8.84615607 82.6849389,8.41398215" id="Fill-36" opacity="0.496186756"></path>
                <path d="M71.5203955,24.8637648 C70.9066013,24.4315908 70.7585788,23.5828952 71.1900579,22.9681126 C71.6211029,22.3528952 72.4693023,22.2050691 73.0830965,22.6368082 C73.6968907,23.0694169 73.8444791,23.9181126 73.413,24.5328952 C72.9815209,25.1476778 72.1341897,25.2959387 71.5203955,24.8637648" id="Fill-38" opacity="0.496186756"></path>
            </g>
        </g>
    </g>
</svg>